<?xml version="1.0" encoding="iso-8859-1"?>
<!-- Generator: Adobe Illustrator 19.0.0, SVG Export Plug-In . SVG Version: 6.00 Build 0)  -->
<svg version="1.1" id="Capa_1" xmlns="http://www.w3.org/2000/svg" xmlns:xlink="http://www.w3.org/1999/xlink" x="0px" y="0px"
	 viewBox="0 0 437.813 437.813" style="enable-background:new 0 0 437.813 437.813;" xml:space="preserve">
<g>
	<g>
		<path d="M373.953,65.095c-42.496-43.008-100.864-66.56-161.28-65.024C92.353,3.655-1.855,103.495,1.729,223.815
			c0.512,25.088,5.632,49.664,14.848,72.704c7.68,19.456,17.92,37.376,30.72,53.76l-17.92,42.496
			c-7.168,16.384,0.512,35.328,16.896,42.496c5.632,2.56,12.288,3.072,18.432,2.048l82.944-14.336
			c29.696,10.24,60.928,13.824,92.16,10.752c107.008-10.752,190.464-98.304,196.096-205.824
			C438.977,166.983,416.449,108.103,373.953,65.095z M202.945,304.199h-56.832c-8.704,0-16.384-7.168-16.384-16.384
			c0-8.704,7.168-16.384,16.384-16.384h56.832c8.704,0,16.384,7.168,16.384,16.384C219.329,297.031,212.161,304.199,202.945,304.199
			z M291.521,237.639H146.113c-8.704,0-16.384-7.168-16.384-16.384s7.168-16.384,16.384-16.384h145.408
			c8.704,0,16.384,7.168,16.384,16.384S300.225,237.639,291.521,237.639z M291.521,170.567H146.113
			c-8.704,0-16.384-7.168-16.384-16.384c0-8.704,7.168-16.384,16.384-16.384h145.408c8.704,0,16.384,7.168,16.384,16.384
			C307.905,162.887,300.225,170.567,291.521,170.567z"/>
	</g>
</g>
<g>
</g>
<g>
</g>
<g>
</g>
<g>
</g>
<g>
</g>
<g>
</g>
<g>
</g>
<g>
</g>
<g>
</g>
<g>
</g>
<g>
</g>
<g>
</g>
<g>
</g>
<g>
</g>
<g>
</g>
</svg>
